<svg width="608" height="608" viewBox="0 0 608 608" fill="none" xmlns="http://www.w3.org/2000/svg">
<g filter="url(#filter0_d_77_306)">
<path d="M236.826 173.484C237.192 157.958 241.326 137.09 261.279 123.066C265.965 119.776 271.128 117.214 276.444 115.094C294.691 107.825 316.5 105.517 333.239 115.806C338.731 119.184 343.407 123.761 347.559 128.704C356.388 139.228 363.091 151.807 365.208 165.379C367.327 178.952 364.533 193.536 356.203 204.455C347.149 216.319 332.142 223.523 326.07 237.16C320.267 250.19 324.252 265.619 320.335 279.332C319.986 280.532 319.546 281.772 318.611 282.596C317.455 283.598 315.825 283.769 314.298 283.889C309.078 284.302 303.868 284.716 298.646 285.129C265.918 287.706 273.5 260.376 267.061 238.06C259.714 212.568 236.172 201.095 236.826 173.484Z" fill="url(#paint0_linear_77_306)"/>
</g>
<path d="M324.897 244.206C325.788 244.138 326.838 244.129 327.41 244.824C327.794 245.293 327.841 245.95 327.858 246.56C328.225 255.612 328.583 264.651 328.946 273.703C329.069 276.658 329.172 279.708 328.14 282.484C325.328 290.081 315.215 293.016 312.471 300.634C311.494 303.352 312.227 302.293 310.773 304.789C308.639 308.474 303.962 309.685 299.751 310.351C295.215 311.063 290.445 311.533 286.144 309.929C284.458 309.298 282.76 308.222 282.188 306.504C281.646 304.853 282.291 303.053 282.226 301.317C282.124 298.306 279.282 299.918 276.893 298.092C274.503 296.262 271.785 294.817 269.779 292.577C265.112 287.352 265.589 279.52 264.877 272.55C263.977 263.827 260.605 248.595 272.131 244.88C275.526 243.783 279.423 245.003 282.854 245.311C289.02 245.865 295.33 245.508 301.505 245.349C309.313 245.144 317.109 244.757 324.897 244.206Z" fill="#CADFDF"/>
<path d="M112.435 375.586C115.725 375.586 118.534 376.158 120.856 377.298V385.379L120.798 385.426C119.812 383.919 117.736 382.916 114.57 382.424C113.637 382.268 112.462 382.189 111.04 382.189C109.615 382.189 108.216 382.459 106.841 382.998C105.471 383.532 104.346 384.288 103.463 385.274C101.756 387.191 100.906 389.927 100.906 393.483C100.906 397.612 101.988 400.691 104.155 402.714C105.944 404.403 108.319 405.247 111.274 405.247C114.62 405.247 117.329 404.537 119.402 403.112C120.158 402.605 120.8 401.972 121.325 401.212L121.407 401.259V408.648C118.716 410.885 115.092 412.003 110.535 412.003C105.169 412.003 100.968 410.299 97.9272 406.889C95.0009 403.629 93.5407 399.318 93.5407 393.953C93.5407 388.27 95.1417 383.793 98.3494 380.524C101.586 377.234 106.281 375.586 112.435 375.586Z" fill="#0F9AFE"/>
<path d="M126.476 397.706C126.476 395.768 126.804 393.914 127.461 392.146C128.124 390.381 129.071 388.836 130.299 387.514C132.988 384.67 136.48 383.245 140.773 383.245C145.048 383.245 148.446 384.59 150.965 387.279C153.372 389.845 154.577 393.179 154.577 397.283C154.577 401.383 153.337 404.775 150.859 407.464C148.238 410.32 144.763 411.745 140.433 411.745C135.967 411.745 132.469 410.346 129.936 407.546C127.628 404.998 126.476 401.717 126.476 397.706ZM132.891 397.541C132.891 398.653 133.073 399.729 133.443 400.767C133.809 401.799 134.337 402.687 135.026 403.429C136.486 405.033 138.404 405.833 140.773 405.833C142.978 405.833 144.714 405.048 145.98 403.476C147.206 401.969 147.822 399.999 147.822 397.565C147.822 395.102 147.188 393.117 145.922 391.607C144.567 389.988 142.711 389.179 140.351 389.179C137.958 389.179 136.084 390.041 134.733 391.759C133.504 393.349 132.891 395.275 132.891 397.541Z" fill="#0F9AFE"/>
<path d="M180.068 409.868C177.831 411.12 175.593 411.745 173.359 411.745C171.131 411.745 169.178 411.393 167.507 410.689C165.832 409.985 164.41 409.018 163.238 407.78C160.804 405.247 159.59 401.96 159.59 397.917C159.59 393.727 160.997 390.243 163.812 387.467C166.642 384.652 170.266 383.245 174.684 383.245C176.036 383.245 177.364 383.42 178.672 383.772V372.02H185.134V400.239C185.134 402.579 185.243 404.106 185.463 404.825C185.68 405.546 185.926 406.074 186.202 406.408C186.474 406.745 186.823 407.062 187.246 407.358L182.284 411.745C181.37 411.252 180.631 410.627 180.068 409.868ZM174.602 405.669C176.08 405.669 177.435 405.388 178.672 404.825V390.211C177.435 389.695 176.095 389.437 174.649 389.437C173.21 389.437 171.975 389.634 170.943 390.024C169.917 390.408 169.037 390.944 168.304 391.63C166.756 393.079 165.982 394.949 165.982 397.248C165.982 399.767 166.686 401.772 168.093 403.265C169.6 404.869 171.77 405.669 174.602 405.669Z" fill="#0F9AFE"/>
<path d="M192.493 397.776C192.493 395.721 192.845 393.812 193.549 392.053C194.252 390.293 195.249 388.754 196.539 387.432C199.284 384.64 202.873 383.245 207.306 383.245C211.05 383.245 214.056 384.485 216.325 386.962C218.559 389.355 219.679 392.363 219.679 395.982C219.679 397.374 219.574 398.324 219.363 398.832C217.603 399.324 214.02 399.57 208.62 399.57H199.331C199.791 401.456 200.855 402.922 202.521 403.969C204.192 405.018 206.368 405.54 209.042 405.54C211.839 405.54 214.24 405.042 216.243 404.039C216.774 403.775 217.172 403.529 217.439 403.3C217.398 404.036 217.351 404.79 217.299 405.564L217.017 409.68C215.68 410.595 213.513 411.229 210.52 411.58C209.643 411.689 208.798 411.745 207.986 411.745C203.521 411.745 199.826 410.443 196.903 407.839C193.962 405.212 192.493 401.858 192.493 397.776ZM212.654 394.457C211.933 390.675 209.877 388.78 206.485 388.78C203.811 388.78 201.776 389.936 200.386 392.24C199.964 392.944 199.639 393.718 199.413 394.562C199.835 394.58 200.354 394.595 200.973 394.609H202.92C203.568 394.633 204.192 394.645 204.796 394.645H206.297C207.195 394.645 208.074 394.633 208.936 394.609L211.106 394.539C211.684 394.516 212.2 394.489 212.654 394.457Z" fill="#0F9AFE"/>
<path d="M239.705 411.451C239.18 411.381 238.285 411.346 237.019 411.346H233.958C233.354 411.346 232.861 411.363 232.48 411.404L232.445 411.346C232.515 411.223 232.55 411.082 232.55 410.924C232.55 410.768 232.539 410.604 232.515 410.431C232.492 410.252 232.421 409.935 232.304 409.481C232.187 409.021 232.014 408.355 231.788 407.487L222.816 376.137C223.942 376.208 225.305 376.243 226.909 376.243C228.51 376.243 229.548 376.172 230.017 376.032L236.245 399.922L242.32 376.137C242.584 376.161 242.824 376.181 243.035 376.196H243.61C244.188 376.228 244.915 376.243 245.792 376.243C246.674 376.243 247.586 376.172 248.524 376.032L254.693 399.922L259.995 376.137C261.05 376.208 262.428 376.243 264.135 376.243C265.847 376.243 266.885 376.172 267.255 376.032L259.655 403.875C258.684 407.083 258.171 408.985 258.118 409.587C258.071 410.182 258.048 410.592 258.048 410.818C258.048 411.047 258.083 411.229 258.153 411.369L258.095 411.451C257.532 411.381 256.643 411.346 255.432 411.346C254.377 411.346 253.418 411.346 252.559 411.346C251.697 411.346 251.072 411.363 250.682 411.404L250.659 411.346C250.729 411.223 250.764 411.082 250.764 410.924C250.764 410.768 250.753 410.613 250.729 410.454C250.712 410.29 250.665 409.985 250.589 409.54C250.509 409.088 250.383 408.422 250.213 407.546L249.498 403.957L245.17 387.514L241.053 403.875C240.209 407.238 239.766 409.173 239.728 409.68C239.658 410.651 239.669 411.214 239.763 411.369L239.705 411.451Z" fill="#0F9AFE"/>
<path d="M271.367 397.776C271.367 395.721 271.719 393.812 272.423 392.053C273.127 390.293 274.123 388.754 275.414 387.432C278.158 384.64 281.747 383.245 286.18 383.245C289.925 383.245 292.93 384.485 295.199 386.962C297.434 389.355 298.554 392.363 298.554 395.982C298.554 397.374 298.448 398.324 298.237 398.832C296.478 399.324 292.895 399.57 287.494 399.57H278.205C278.665 401.456 279.73 402.922 281.395 403.969C283.066 405.018 285.242 405.54 287.916 405.54C290.713 405.54 293.115 405.042 295.117 404.039C295.648 403.775 296.047 403.529 296.314 403.3C296.272 404.036 296.226 404.79 296.173 405.564L295.891 409.68C294.554 410.595 292.387 411.229 289.394 411.58C288.517 411.689 287.673 411.745 286.86 411.745C282.395 411.745 278.7 410.443 275.777 407.839C272.836 405.212 271.367 401.858 271.367 397.776ZM291.528 394.457C290.807 390.675 288.752 388.78 285.359 388.78C282.685 388.78 280.65 389.936 279.26 392.24C278.838 392.944 278.513 393.718 278.287 394.562C278.709 394.58 279.228 394.595 279.847 394.609H281.794C282.442 394.633 283.066 394.645 283.67 394.645H285.172C286.069 394.645 286.948 394.633 287.81 394.609L289.98 394.539C290.558 394.516 291.074 394.489 291.528 394.457Z" fill="#0F9AFE"/>
<path d="M311.952 384.769C313.923 383.755 315.934 383.245 317.992 383.245C320.057 383.245 321.831 383.567 323.317 384.206C324.801 384.848 326.108 385.766 327.234 386.962C329.68 389.622 330.905 392.979 330.905 397.037C330.905 401.494 329.574 405.083 326.918 407.804C324.367 410.431 321.194 411.745 317.394 411.745C314.046 411.745 311.295 410.874 309.137 409.129C306.704 407.159 305.49 404.444 305.49 400.978V372.079H311.952V384.769ZM311.952 400.896C311.952 403.992 313.879 405.54 317.734 405.54C319.617 405.54 321.2 404.713 322.484 403.054C323.789 401.365 324.443 399.266 324.443 396.756C324.443 394.222 323.754 392.311 322.379 391.02C321.15 389.88 319.497 389.308 317.418 389.308C316.166 389.308 314.785 389.73 313.278 390.575C312.8 390.842 312.357 391.132 311.952 391.443V400.896Z" fill="#0F9AFE"/>
<path d="M378.614 378.201L378.11 385.954L377.922 386.012C376.623 384.06 374.407 382.793 371.272 382.212C370.287 382.019 369.34 381.919 368.434 381.919C367.534 381.919 366.76 382.001 366.112 382.166C365.47 382.324 364.921 382.55 364.47 382.846C363.499 383.479 363.016 384.306 363.016 385.32C363.016 386.658 363.438 387.663 364.282 388.335C365.338 389.141 367.088 389.707 369.537 390.035C371.982 390.364 373.946 390.809 375.424 391.372C376.902 391.935 378.113 392.648 379.06 393.507C380.857 395.125 381.758 397.412 381.758 400.368C381.758 404.238 380.294 407.223 377.371 409.317C374.876 411.108 371.73 412.003 367.93 412.003C364.863 412.003 361.837 411.422 358.852 410.267C357.867 409.877 357.002 409.428 356.26 408.918L356.553 400.098L356.659 400.028C358.84 403.79 362.42 405.669 367.402 405.669C370.935 405.669 373.272 404.819 374.416 403.112C374.806 402.535 375.002 401.89 375.002 401.177C375.002 400.459 374.885 399.87 374.65 399.406C374.421 398.937 374.046 398.535 373.524 398.198C372.498 397.536 370.783 397.09 368.375 396.861C365.965 396.627 363.995 396.193 362.464 395.559C360.931 394.926 359.708 394.146 358.793 393.214C357.143 391.525 356.319 389.167 356.319 386.141C356.319 383.016 357.415 380.483 359.614 378.541C361.849 376.571 364.86 375.586 368.645 375.586C372.436 375.586 375.758 376.46 378.614 378.201Z" fill="#0F9AFE"/>
<path d="M407.717 421.503C407.788 421.048 407.823 420.063 407.823 418.547V408.918C405.641 410.803 403.219 411.745 400.563 411.745C396.927 411.745 393.972 410.572 391.696 408.226C389.327 405.804 388.143 402.567 388.143 398.515C388.143 393.941 389.409 390.267 391.943 387.49C394.406 384.834 397.525 383.503 401.302 383.503C404.187 383.503 406.456 383.96 408.116 384.875L414.285 383.772V421.503H407.717ZM407.823 391.056C406.556 389.836 404.533 389.226 401.759 389.226C399.578 389.226 397.833 390.056 396.528 391.712C395.244 393.349 394.605 395.395 394.605 397.858C394.605 401.517 395.907 403.954 398.51 405.165C399.384 405.587 400.422 405.798 401.619 405.798C404.105 405.798 406.172 404.658 407.823 402.374V391.056Z" fill="#0F9AFE"/>
<path d="M438.404 408.941C436.152 410.812 433.7 411.745 431.05 411.745C428.194 411.745 425.96 410.783 424.341 408.859C422.793 407 422.019 404.444 422.019 401.189V390.704C422.019 387.185 421.943 385.168 421.796 384.652C421.647 384.136 421.538 383.808 421.468 383.667C422.271 383.737 423.116 383.772 424.001 383.772H426.194C426.772 383.772 427.534 383.746 428.481 383.69V398.972C428.481 402.593 429.467 404.693 431.437 405.27C432.038 405.452 432.692 405.54 433.396 405.54C435.466 405.54 437.137 404.784 438.404 403.265V383.772H444.948V407.968C444.948 409.516 445.018 410.642 445.159 411.346H438.404V408.941Z" fill="#0F9AFE"/>
<path d="M472.655 409.704C470.16 411.064 467.899 411.745 465.876 411.745C463.85 411.745 462.114 411.557 460.669 411.182C459.229 410.8 458.009 410.237 457.01 409.493C454.969 408 453.948 405.839 453.948 403.007C453.948 400.474 455.198 398.362 457.702 396.674C460.405 394.844 464.082 393.929 468.726 393.929L469.782 393.953C469.993 393.97 470.23 393.985 470.497 394C470.761 394.008 471.002 394.029 471.213 394.058C471.072 391.243 469.855 389.598 467.565 389.12C466.806 388.965 465.999 388.886 465.149 388.886C464.296 388.886 463.46 388.962 462.639 389.109C461.824 389.258 461.032 389.458 460.258 389.707C458.552 390.255 457.329 390.88 456.587 391.583L456.505 391.525L455.719 385.696C458.83 384.063 462.235 383.245 465.935 383.245C471.664 383.245 475.332 385.309 476.936 389.437C477.443 390.76 477.698 392.249 477.698 393.906V403.453C477.698 405.493 478.42 406.886 479.868 407.628L475.083 412.003C474.08 411.478 473.271 410.712 472.655 409.704ZM471.236 398.808C470.758 398.723 470.266 398.679 469.758 398.679H468.703C464.815 398.679 462.346 399.541 461.29 401.259C460.968 401.775 460.81 402.315 460.81 402.878C460.81 403.441 460.909 403.939 461.115 404.367C461.317 404.798 461.657 405.153 462.135 405.435C463.05 405.96 464.404 406.22 466.205 406.22C468.011 406.22 469.694 405.792 471.26 404.93C471.242 404.737 471.236 404.532 471.236 404.32V398.808Z" fill="#0F9AFE"/>
<path d="M505.934 409.868C503.696 411.12 501.459 411.745 499.225 411.745C496.997 411.745 495.044 411.393 493.372 410.689C491.698 409.985 490.276 409.018 489.103 407.78C486.67 405.247 485.456 401.96 485.456 397.917C485.456 393.727 486.863 390.243 489.678 387.467C492.508 384.652 496.132 383.245 500.55 383.245C501.902 383.245 503.23 383.42 504.538 383.772V372.02H511V400.239C511 402.579 511.109 404.106 511.329 404.825C511.546 405.546 511.792 406.074 512.068 406.408C512.34 406.745 512.689 407.062 513.111 407.358L508.15 411.745C507.235 411.252 506.497 410.627 505.934 409.868ZM500.468 405.669C501.946 405.669 503.301 405.388 504.538 404.825V390.211C503.301 389.695 501.961 389.437 500.515 389.437C499.075 389.437 497.841 389.634 496.809 390.024C495.783 390.408 494.903 390.944 494.17 391.63C492.622 393.079 491.848 394.949 491.848 397.248C491.848 399.767 492.551 401.772 493.959 403.265C495.466 404.869 497.636 405.669 500.468 405.669Z" fill="#0F9AFE"/>
<path d="M272.732 446.138V440.335H276.055C276.917 440.335 277.609 440.611 278.133 441.136C278.638 441.681 278.91 442.352 278.91 443.194C278.91 444.056 278.638 444.751 278.092 445.317C277.547 445.862 276.873 446.138 276.055 446.138H272.732ZM280.382 443.238C280.382 441.974 279.922 440.945 279.036 440.127C278.154 439.327 277.104 438.928 275.843 438.928H271.263V453.219H272.732V447.566H275.843C277.104 447.566 278.177 447.167 279.036 446.366C279.922 445.528 280.382 444.499 280.382 443.238Z" fill="#0F9AFE"/>
<path d="M285.531 447.965L288.138 441.388L290.721 447.965H285.531ZM294.401 453.219L288.138 437.94L281.854 453.219H283.449L284.986 449.331H291.269L292.803 453.219H294.401Z" fill="#0F9AFE"/>
<path d="M310.14 448.847H308.521C308.017 449.774 307.325 450.53 306.442 451.075C305.56 451.641 304.572 451.917 303.519 451.917C301.945 451.917 300.599 451.348 299.484 450.172C298.391 449.058 297.866 447.692 297.866 446.094C297.866 444.499 298.391 443.132 299.484 441.998C299.989 441.47 300.599 441.051 301.294 440.737C301.965 440.42 302.636 440.253 303.311 440.253C303.962 440.253 304.528 440.335 305.032 440.485C306.568 440.945 307.724 441.872 308.501 443.279H310.119C309.571 441.933 308.712 440.839 307.513 440.001C306.293 439.159 304.97 438.74 303.519 438.74C301.522 438.74 299.842 439.476 298.455 440.925C297.804 441.596 297.3 442.396 296.942 443.279C296.564 444.162 296.397 445.106 296.397 446.094C296.397 448.111 297.068 449.815 298.455 451.243C299.842 452.714 301.522 453.43 303.519 453.43C304.97 453.43 306.293 453.008 307.533 452.169C308.732 451.328 309.594 450.234 310.14 448.847Z" fill="#0F9AFE"/>
<path d="M326.3 448.847H324.681C324.177 449.774 323.485 450.53 322.602 451.075C321.72 451.641 320.732 451.917 319.679 451.917C318.105 451.917 316.759 451.348 315.645 450.172C314.551 449.058 314.026 447.692 314.026 446.094C314.026 444.499 314.551 443.132 315.645 441.998C316.149 441.47 316.759 441.051 317.454 440.737C318.125 440.42 318.797 440.253 319.471 440.253C320.122 440.253 320.688 440.335 321.192 440.485C322.729 440.945 323.884 441.872 324.661 443.279H326.279C325.731 441.933 324.872 440.839 323.673 440.001C322.453 439.159 321.131 438.74 319.679 438.74C317.682 438.74 316.002 439.476 314.615 440.925C313.965 441.596 313.46 442.396 313.102 443.279C312.724 444.162 312.557 445.106 312.557 446.094C312.557 448.111 313.229 449.815 314.615 451.243C316.002 452.714 317.682 453.43 319.679 453.43C321.131 453.43 322.453 453.008 323.693 452.169C324.892 451.328 325.755 450.234 326.3 448.847Z" fill="#0F9AFE"/>
<path d="M337.836 453.219V451.852H330.817V446.768H337.625V445.381H330.817V440.294H337.836V438.928H329.348V453.219H337.836Z" fill="#0F9AFE"/>
<defs>
<filter id="filter0_d_77_306" x="169.812" y="22.8524" width="263.075" height="310.446" filterUnits="userSpaceOnUse" color-interpolation-filters="sRGB">
<feFlood flood-opacity="0" result="BackgroundImageFix"/>
<feColorMatrix in="SourceAlpha" type="matrix" values="0 0 0 0 0 0 0 0 0 0 0 0 0 0 0 0 0 0 127 0" result="hardAlpha"/>
<feOffset dy="-19"/>
<feGaussianBlur stdDeviation="33.5"/>
<feComposite in2="hardAlpha" operator="out"/>
<feColorMatrix type="matrix" values="0 0 0 0 0.0588235 0 0 0 0 0.603922 0 0 0 0 0.996078 0 0 0 1 0"/>
<feBlend mode="normal" in2="BackgroundImageFix" result="effect1_dropShadow_77_306"/>
<feBlend mode="normal" in="SourceGraphic" in2="effect1_dropShadow_77_306" result="shape"/>
</filter>
<linearGradient id="paint0_linear_77_306" x1="301.35" y1="108.852" x2="301.185" y2="254.178" gradientUnits="userSpaceOnUse">
<stop stop-color="#0F9AFE"/>
<stop offset="1" stop-color="#293145"/>
</linearGradient>
</defs>
</svg>
