<svg width="22" height="22" viewBox="0 0 22 22" fill="none" xmlns="http://www.w3.org/2000/svg">
<g filter="url(#filter0_d_109_325)">
<path d="M17.1157 0.00618401C17.3068 -0.00794295 17.5319 -0.00978552 17.6544 0.135783C17.7368 0.234058 17.7468 0.371642 17.7506 0.499398C17.8292 2.39548 17.9059 4.2891 17.9838 6.18518C18.0102 6.80431 18.0322 7.44309 17.811 8.02475C17.2081 9.61618 15.04 10.231 14.4516 11.8267C14.2423 12.3961 14.3995 12.1744 14.0877 12.6971C13.63 13.4691 12.6274 13.7228 11.7247 13.8622C10.7522 14.0115 9.72948 14.1098 8.8073 13.7738C8.44585 13.6417 8.08188 13.4163 7.9593 13.0564C7.84301 12.7106 7.9813 12.3335 7.96747 11.9698C7.94547 11.3391 7.33634 11.6769 6.82402 11.2942C6.3117 10.9109 5.72897 10.6081 5.299 10.1389C4.29825 9.04435 4.40071 7.40378 4.24796 5.94379C4.05497 4.11651 3.33206 0.925663 5.80315 0.147453C6.53109 -0.0822628 7.36652 0.17325 8.102 0.237743C9.42397 0.353829 10.7768 0.278895 12.1006 0.245728C13.7746 0.202733 15.4461 0.121656 17.1157 0.00618401Z" fill="#CADFDF"/>
</g>
<defs>
<filter id="filter0_d_109_325" x="0" y="0" width="22" height="22" filterUnits="userSpaceOnUse" color-interpolation-filters="sRGB">
<feFlood flood-opacity="0" result="BackgroundImageFix"/>
<feColorMatrix in="SourceAlpha" type="matrix" values="0 0 0 0 0 0 0 0 0 0 0 0 0 0 0 0 0 0 127 0" result="hardAlpha"/>
<feOffset dy="4"/>
<feGaussianBlur stdDeviation="2"/>
<feComposite in2="hardAlpha" operator="out"/>
<feColorMatrix type="matrix" values="0 0 0 0 0 0 0 0 0 0 0 0 0 0 0 0 0 0 0.25 0"/>
<feBlend mode="normal" in2="BackgroundImageFix" result="effect1_dropShadow_109_325"/>
<feBlend mode="normal" in="SourceGraphic" in2="effect1_dropShadow_109_325" result="shape"/>
</filter>
</defs>
</svg>
