<svg width="160" height="62" viewBox="0 0 160 62" fill="none" xmlns="http://www.w3.org/2000/svg">
<g filter="url(#filter0_d_109_324)">
<path d="M67.0027 23.5529C67.0765 20.2972 67.9093 15.9214 71.9285 12.9805C72.8723 12.2907 73.9124 11.7533 74.9832 11.3088C78.6586 9.78456 83.0517 9.30067 86.4235 11.4582C87.5298 12.1665 88.4718 13.1263 89.3081 14.1629C91.0865 16.3696 92.4366 19.0073 92.8631 21.8534C93.2901 24.6996 92.7272 27.7578 91.0493 30.0475C89.2254 32.5352 86.2026 34.0459 84.9795 36.9055C83.8106 39.6379 84.6133 42.8733 83.8242 45.7489C83.7539 46.0004 83.6653 46.2605 83.4769 46.4332C83.2442 46.6435 82.9158 46.6792 82.6081 46.7044C81.5568 46.7911 80.5073 46.8778 79.4554 46.9645C72.8628 47.5049 74.3902 41.7739 73.0932 37.0943C71.6131 31.7488 66.871 29.3429 67.0027 23.5529Z" fill="url(#paint0_linear_109_324)"/>
</g>
<defs>
<filter id="filter0_d_109_324" x="0" y="-76" width="160" height="171" filterUnits="userSpaceOnUse" color-interpolation-filters="sRGB">
<feFlood flood-opacity="0" result="BackgroundImageFix"/>
<feColorMatrix in="SourceAlpha" type="matrix" values="0 0 0 0 0 0 0 0 0 0 0 0 0 0 0 0 0 0 127 0" result="hardAlpha"/>
<feOffset dy="-19"/>
<feGaussianBlur stdDeviation="33.5"/>
<feComposite in2="hardAlpha" operator="out"/>
<feColorMatrix type="matrix" values="0 0 0 0 0.180392 0 0 0 0 0.572549 0 0 0 0 0.866667 0 0 0 1 0"/>
<feBlend mode="normal" in2="BackgroundImageFix" result="effect1_dropShadow_109_324"/>
<feBlend mode="normal" in="SourceGraphic" in2="effect1_dropShadow_109_324" result="shape"/>
</filter>
<linearGradient id="paint0_linear_109_324" x1="80" y1="10" x2="79.9622" y2="40.1394" gradientUnits="userSpaceOnUse">
<stop stop-color="#0F9AFE"/>
<stop offset="1" stop-color="#293145"/>
</linearGradient>
</defs>
</svg>
